HIERARCHY
ROOT hip
{
	OFFSET 0.000000 0.000000 0.000000
	CHANNELS 6 Xposition Yposition Zposition Xrotation Zrotation Yrotation 
	JOINT abdomen
	{
		OFFSET 0.000000 3.422050 0.000000
		CHANNELS 3 Xrotation Zrotation Yrotation 
		JOINT chest
		{
			OFFSET 0.000000 8.486693 -0.6844110
			CHANNELS 3 Xrotation Zrotation Yrotation 
			JOINT neck
			{
				OFFSET 0.000000 10.26616 -0.2737640
				CHANNELS 3 Xrotation Zrotation Yrotation 
				JOINT head
				{
					OFFSET 0.000000 3.148285 0.000000
					CHANNELS 3 Xrotation Zrotation Yrotation 
					End Site
					{
						OFFSET 0.000000 3.148289 0.000000
					}
				}
			}
			JOINT lCollar
			{
				OFFSET 3.422053 6.707223 -0.8212930
				CHANNELS 3 Yrotation Zrotation Xrotation 
				JOINT lShldr
				{
					OFFSET 3.285171 0.000000 0.000000
					CHANNELS 3 Zrotation Yrotation Xrotation 
					JOINT lForeArm
					{
						OFFSET 10.12928 0.000000 0.000000
						CHANNELS 3 Yrotation Zrotation Xrotation 
						JOINT lHand
						{
							OFFSET 8.486692 0.000000 0.000000
							CHANNELS 3 Zrotation Yrotation Xrotation 
							End Site
							{
								OFFSET 4.106464 0.000000 0.000000
							}
						}
					}
				}
			}
			JOINT rCollar
			{
				OFFSET -3.558935 6.707223 -0.8212930
				CHANNELS 3 Yrotation Zrotation Xrotation 
				JOINT rShldr
				{
					OFFSET -3.148289 0.000000 0.000000
					CHANNELS 3 Zrotation Yrotation Xrotation 
					JOINT rForeArm
					{
						OFFSET -10.26616 0.000000 0.000000
						CHANNELS 3 Yrotation Zrotation Xrotation 
						JOINT rHand
						{
							OFFSET -8.349810 0.000000 0.000000
							CHANNELS 3 Zrotation Yrotation Xrotation 
							End Site
							{
								OFFSET -4.106464 0.000000 0.000000
							}
						}
					}
				}
			}
		}
	}
	JOINT lThigh
	{
		OFFSET 5.338403 -1.642589 1.368821
		CHANNELS 3 Xrotation Zrotation Yrotation 
		JOINT lShin
		{
			OFFSET -2.053232 -20.12167 0.000000
			CHANNELS 3 Xrotation Zrotation Yrotation 
			JOINT lFoot
			{
				OFFSET 0.000000 -19.30038 -1.231939
				CHANNELS 3 Xrotation Yrotation Zrotation 
				End Site
				{
					OFFSET 0.000000 -2.463878 4.653993
				}
			}
		}
	}
	JOINT rThigh
	{
		OFFSET -5.338403 -1.642589 1.368821
		CHANNELS 3 Xrotation Zrotation Yrotation 
		JOINT rShin
		{
			OFFSET 2.053232 -20.12167 0.000000
			CHANNELS 3 Xrotation Zrotation Yrotation 
			JOINT rFoot
			{
				OFFSET 0.000000 -19.30038 -1.231939
				CHANNELS 3 Xrotation Yrotation Zrotation 
				End Site
				{
					OFFSET 0.000000 -2.463878 4.653993
				}
			}
		}
	}
}
MOTION
Frames:	21
Frame Time:	0.03333333
13.00000 38.00000 0.000000 1.000000 0.000000 0.000000 0.000000 0.000000 -16.00000 0.000000 0.000000 -23.00000 1.000000 0.000000 0.000000 1.000000 0.000000 0.000000 0.000000 0.000000 1.000000 -82.00000 24.43333 0.000000 -89.00000 0.000000 -18.66667 0.000000 -20.00000 -57.00000 0.000000 0.000000 1.000000 82.00000 -24.43333 0.000000 89.00000 0.000000 -18.66667 0.000000 20.00000 -57.00000 -20.00000 8.000000 20.00000 40.00000 0.000000 0.000000 -25.00000 0.000000 0.000000 -24.83333 -8.766666 -20.00000 49.60000 0.000000 0.000000 -25.00000 0.000000 0.000000 
13.00000 38.00000 0.000000 1.000000 0.000000 0.000000 0.000000 0.000000 -16.00000 0.000000 0.000000 -23.00000 1.000000 0.000000 0.000000 1.000000 0.000000 0.000000 0.000000 0.000000 1.000000 -82.00000 21.86667 0.000000 -89.00000 0.000000 -17.33333 0.000000 -20.00000 -54.00000 0.000000 0.000000 1.000000 82.00000 -21.86667 0.000000 89.00000 0.000000 -17.33333 0.000000 20.00000 -54.00000 -20.00000 8.000000 20.00000 40.00000 0.000000 0.000000 -25.00000 0.000000 0.000000 -24.66667 -9.533334 -20.00000 49.20000 0.000000 0.000000 -25.00000 0.000000 0.000000 
13.00000 38.00000 0.000000 1.000000 0.000000 0.000000 0.000000 0.000000 -16.00000 0.000000 0.000000 -23.00000 1.000000 0.000000 0.000000 1.000000 0.000000 0.000000 0.000000 0.000000 1.000000 -82.00000 19.30000 0.000000 -89.00000 0.000000 -16.00000 0.000000 -20.00000 -51.00000 0.000000 0.000000 1.000000 82.00000 -19.30000 0.000000 89.00000 0.000000 -16.00000 0.000000 20.00000 -51.00000 -20.00000 8.000000 20.00000 40.00000 0.000000 0.000000 -25.00000 0.000000 0.000000 -24.50000 -10.30000 -20.00000 48.80000 0.000000 0.000000 -25.00000 0.000000 0.000000 
13.00000 38.00000 0.000000 1.000000 0.000000 0.000000 0.000000 0.000000 -16.00000 0.000000 0.000000 -23.00000 1.000000 0.000000 0.000000 1.000000 0.000000 0.000000 0.000000 0.000000 1.000000 -82.00000 16.73333 0.000000 -89.00000 0.000000 -14.66667 0.000000 -20.00000 -48.00000 0.000000 0.000000 1.000000 82.00000 -16.73333 0.000000 89.00000 0.000000 -14.66667 0.000000 20.00000 -48.00000 -20.00000 8.000000 20.00000 40.00000 0.000000 0.000000 -25.00000 0.000000 0.000000 -24.33333 -11.06667 -20.00000 48.40000 0.000000 0.000000 -25.00000 0.000000 0.000000 
13.00000 38.00000 0.000000 1.000000 0.000000 0.000000 0.000000 0.000000 -16.00000 0.000000 0.000000 -23.00000 1.000000 0.000000 0.000000 1.000000 0.000000 0.000000 0.000000 0.000000 1.000000 -82.00000 14.16667 0.000000 -89.00000 0.000000 -13.33333 0.000000 -20.00000 -45.00000 0.000000 0.000000 1.000000 82.00000 -14.16667 0.000000 89.00000 0.000000 -13.33333 0.000000 20.00000 -45.00000 -20.00000 8.000000 20.00000 40.00000 0.000000 0.000000 -25.00000 0.000000 0.000000 -24.16667 -11.83333 -20.00000 48.00000 0.000000 0.000000 -25.00000 0.000000 0.000000 
13.00000 38.00000 0.000000 1.000000 0.000000 0.000000 0.000000 0.000000 -16.00000 0.000000 0.000000 -23.00000 1.000000 0.000000 0.000000 1.000000 0.000000 0.000000 0.000000 0.000000 1.000000 -82.00000 11.60000 0.000000 -89.00000 0.000000 -12.00000 0.000000 -20.00000 -42.00000 0.000000 0.000000 1.000000 82.00000 -11.60000 0.000000 89.00000 0.000000 -12.00000 0.000000 20.00000 -42.00000 -20.00000 8.000000 20.00000 40.00000 0.000000 0.000000 -25.00000 0.000000 0.000000 -24.00000 -12.60000 -20.00000 47.60000 0.000000 0.000000 -25.00000 0.000000 0.000000 
13.00000 38.00000 0.000000 1.000000 0.000000 0.000000 0.000000 0.000000 -16.00000 0.000000 0.000000 -23.00000 1.000000 0.000000 0.000000 1.000000 0.000000 0.000000 0.000000 0.000000 1.000000 -82.00000 9.033334 0.000000 -89.00000 0.000000 -10.66667 0.000000 -20.00000 -39.00000 0.000000 0.000000 1.000000 82.00000 -9.033334 0.000000 89.00000 0.000000 -10.66667 0.000000 20.00000 -39.00000 -20.00000 8.000000 20.00000 40.00000 0.000000 0.000000 -25.00000 0.000000 0.000000 -23.83333 -13.36667 -20.00000 47.20000 0.000000 0.000000 -25.00000 0.000000 0.000000 
13.00000 38.00000 0.000000 1.000000 0.000000 0.000000 0.000000 0.000000 -16.00000 0.000000 0.000000 -23.00000 1.000000 0.000000 0.000000 1.000000 0.000000 0.000000 0.000000 0.000000 1.000000 -82.00000 6.466667 0.000000 -89.00000 0.000000 -9.333333 0.000000 -20.00000 -36.00000 0.000000 0.000000 1.000000 82.00000 -6.466667 0.000000 89.00000 0.000000 -9.333333 0.000000 20.00000 -36.00000 -20.00000 8.000000 20.00000 40.00000 0.000000 0.000000 -25.00000 0.000000 0.000000 -23.66667 -14.13333 -20.00000 46.80000 0.000000 0.000000 -25.00000 0.000000 0.000000 
13.00000 38.00000 0.000000 1.000000 0.000000 0.000000 0.000000 0.000000 -16.00000 0.000000 0.000000 -23.00000 1.000000 0.000000 0.000000 1.000000 0.000000 0.000000 0.000000 0.000000 1.000000 -82.00000 3.900000 0.000000 -89.00000 0.000000 -8.000000 0.000000 -20.00000 -33.00000 0.000000 0.000000 1.000000 82.00000 -3.900000 0.000000 89.00000 0.000000 -8.000000 0.000000 20.00000 -33.00000 -20.00000 8.000000 20.00000 40.00000 0.000000 0.000000 -25.00000 0.000000 0.000000 -23.50000 -14.90000 -20.00000 46.40000 0.000000 0.000000 -25.00000 0.000000 0.000000 
13.00000 38.00000 0.000000 1.000000 0.000000 0.000000 0.000000 0.000000 -16.00000 0.000000 0.000000 -23.00000 1.000000 0.000000 0.000000 1.000000 0.000000 0.000000 0.000000 0.000000 1.000000 -82.00000 1.333333 0.000000 -89.00000 0.000000 -6.666667 0.000000 -20.00000 -30.00000 0.000000 0.000000 1.000000 82.00000 -1.333333 0.000000 89.00000 0.000000 -6.666667 0.000000 20.00000 -30.00000 -20.00000 8.000000 20.00000 40.00000 0.000000 0.000000 -25.00000 0.000000 0.000000 -23.33333 -15.66667 -20.00000 46.00000 0.000000 0.000000 -25.00000 0.000000 0.000000 
13.00000 38.00000 0.000000 1.000000 0.000000 0.000000 0.000000 0.000000 -16.00000 0.000000 0.000000 -23.00000 1.000000 0.000000 0.000000 1.000000 0.000000 0.000000 0.000000 0.000000 1.000000 -82.00000 -1.233333 0.000000 -89.00000 0.000000 -5.333333 0.000000 -20.00000 -27.00000 0.000000 0.000000 1.000000 82.00000 1.233333 0.000000 89.00000 0.000000 -5.333333 0.000000 20.00000 -27.00000 -20.00000 8.000000 20.00000 40.00000 0.000000 0.000000 -25.00000 0.000000 0.000000 -23.16667 -16.43333 -20.00000 45.60000 0.000000 0.000000 -25.00000 0.000000 0.000000 
13.00000 38.00000 0.000000 1.000000 0.000000 0.000000 0.000000 0.000000 -16.00000 0.000000 0.000000 -23.00000 1.000000 0.000000 0.000000 1.000000 0.000000 0.000000 0.000000 0.000000 1.000000 -82.00000 -3.800000 0.000000 -89.00000 0.000000 -4.000000 0.000000 -20.00000 -24.00000 0.000000 0.000000 1.000000 82.00000 3.800000 0.000000 89.00000 0.000000 -4.000000 0.000000 20.00000 -24.00000 -20.00000 8.000000 20.00000 40.00000 0.000000 0.000000 -25.00000 0.000000 0.000000 -23.00000 -17.20000 -20.00000 45.20000 0.000000 0.000000 -25.00000 0.000000 0.000000 
13.00000 38.00000 0.000000 1.000000 0.000000 0.000000 0.000000 0.000000 -16.00000 0.000000 0.000000 -23.00000 1.000000 0.000000 0.000000 1.000000 0.000000 0.000000 0.000000 0.000000 1.000000 -82.00000 -6.366667 0.000000 -89.00000 0.000000 -2.666667 0.000000 -20.00000 -21.00000 0.000000 0.000000 1.000000 82.00000 6.366667 0.000000 89.00000 0.000000 -2.666667 0.000000 20.00000 -21.00000 -20.00000 8.000000 20.00000 40.00000 0.000000 0.000000 -25.00000 0.000000 0.000000 -22.83333 -17.96667 -20.00000 44.80000 0.000000 0.000000 -25.00000 0.000000 0.000000 
13.00000 38.00000 0.000000 1.000000 0.000000 0.000000 0.000000 0.000000 -16.00000 0.000000 0.000000 -23.00000 1.000000 0.000000 0.000000 1.000000 0.000000 0.000000 0.000000 0.000000 1.000000 -82.00000 -8.933333 0.000000 -89.00000 0.000000 -1.333333 0.000000 -20.00000 -18.00000 0.000000 0.000000 1.000000 82.00000 8.933333 0.000000 89.00000 0.000000 -1.333333 0.000000 20.00000 -18.00000 -20.00000 8.000000 20.00000 40.00000 0.000000 0.000000 -25.00000 0.000000 0.000000 -22.66667 -18.73333 -20.00000 44.40000 0.000000 0.000000 -25.00000 0.000000 0.000000 
13.00000 38.00000 0.000000 1.000000 0.000000 0.000000 0.000000 0.000000 -16.00000 0.000000 0.000000 -23.00000 1.000000 0.000000 0.000000 1.000000 0.000000 0.000000 0.000000 0.000000 1.000000 -82.00000 -11.50000 0.000000 -89.00000 0.000000 0.000000 0.000000 -20.00000 -15.00000 0.000000 0.000000 1.000000 82.00000 11.50000 0.000000 89.00000 0.000000 0.000000 0.000000 20.00000 -15.00000 -20.00000 8.000000 20.00000 40.00000 0.000000 0.000000 -25.00000 0.000000 0.000000 -22.50000 -19.50000 -20.00000 44.00000 0.000000 0.000000 -25.00000 0.000000 0.000000 
13.00000 38.00000 0.000000 1.000000 0.000000 0.000000 0.000000 0.000000 -16.00000 0.000000 0.000000 -23.00000 1.000000 0.000000 0.000000 1.000000 0.000000 0.000000 0.000000 0.000000 1.000000 -82.00000 -14.06667 0.000000 -89.00000 0.000000 1.333333 0.000000 -20.00000 -12.00000 0.000000 0.000000 1.000000 82.00000 14.06667 0.000000 89.00000 0.000000 1.333333 0.000000 20.00000 -12.00000 -20.00000 8.000000 20.00000 40.00000 0.000000 0.000000 -25.00000 0.000000 0.000000 -22.33333 -20.26667 -20.00000 43.60000 0.000000 0.000000 -25.00000 0.000000 0.000000 
13.00000 38.00000 0.000000 1.000000 0.000000 0.000000 0.000000 0.000000 -16.00000 0.000000 0.000000 -23.00000 1.000000 0.000000 0.000000 1.000000 0.000000 0.000000 0.000000 0.000000 1.000000 -82.00000 -16.63333 0.000000 -89.00000 0.000000 2.666667 0.000000 -20.00000 -9.000000 0.000000 0.000000 1.000000 82.00000 16.63333 0.000000 89.00000 0.000000 2.666667 0.000000 20.00000 -9.000000 -20.00000 8.000000 20.00000 40.00000 0.000000 0.000000 -25.00000 0.000000 0.000000 -22.16667 -21.03333 -20.00000 43.20000 0.000000 0.000000 -25.00000 0.000000 0.000000 
13.00000 38.00000 0.000000 1.000000 0.000000 0.000000 0.000000 0.000000 -16.00000 0.000000 0.000000 -23.00000 1.000000 0.000000 0.000000 1.000000 0.000000 0.000000 0.000000 0.000000 1.000000 -82.00000 -19.20000 0.000000 -89.00000 0.000000 4.000000 0.000000 -20.00000 -6.000000 0.000000 0.000000 1.000000 82.00000 19.20000 0.000000 89.00000 0.000000 4.000000 0.000000 20.00000 -6.000000 -20.00000 8.000000 20.00000 40.00000 0.000000 0.000000 -25.00000 0.000000 0.000000 -22.00000 -21.80000 -20.00000 42.80000 0.000000 0.000000 -25.00000 0.000000 0.000000 
13.00000 38.00000 0.000000 1.000000 0.000000 0.000000 0.000000 0.000000 -16.00000 0.000000 0.000000 -23.00000 1.000000 0.000000 0.000000 1.000000 0.000000 0.000000 0.000000 0.000000 1.000000 -82.00000 -21.76667 0.000000 -89.00000 0.000000 5.333333 0.000000 -20.00000 -3.000000 0.000000 0.000000 1.000000 82.00000 21.76667 0.000000 89.00000 0.000000 5.333333 0.000000 20.00000 -3.000000 -20.00000 8.000000 20.00000 40.00000 0.000000 0.000000 -25.00000 0.000000 0.000000 -21.83333 -22.56667 -20.00000 42.40000 0.000000 0.000000 -25.00000 0.000000 0.000000 
13.00000 38.00000 0.000000 1.000000 0.000000 0.000000 0.000000 0.000000 -16.00000 0.000000 0.000000 -23.00000 1.000000 0.000000 0.000000 1.000000 0.000000 0.000000 0.000000 0.000000 1.000000 -82.00000 -24.33333 0.000000 -89.00000 0.000000 6.666667 0.000000 -20.00000 0.000000 0.000000 0.000000 1.000000 82.00000 24.33333 0.000000 89.00000 0.000000 6.666667 0.000000 20.00000 0.000000 -20.00000 8.000000 20.00000 40.00000 0.000000 0.000000 -25.00000 0.000000 0.000000 -21.66667 -23.33333 -20.00000 42.00000 0.000000 0.000000 -25.00000 0.000000 0.000000 
13.00000 38.00000 0.000000 1.000000 0.000000 0.000000 0.000000 0.000000 -16.00000 0.000000 0.000000 -23.00000 1.000000 0.000000 0.000000 1.000000 0.000000 0.000000 0.000000 0.000000 1.000000 -82.00000 -26.90000 0.000000 -89.00000 0.000000 8.000000 0.000000 -20.00000 3.000000 0.000000 0.000000 1.000000 82.00000 26.90000 0.000000 89.00000 0.000000 8.000000 0.000000 20.00000 3.000000 -20.00000 8.000000 20.00000 40.00000 0.000000 0.000000 -25.00000 0.000000 0.000000 -21.50000 -24.10000 -20.00000 41.60000 0.000000 0.000000 -25.00000 0.000000 0.000000 
